<svg width="198" height="32" viewBox="0 0 198 32" fill="none" xmlns="http://www.w3.org/2000/svg">
<path d="M96.795 10.9578H95.5381L100.421 0.161144H102.016L106.915 10.9578H105.626L104.175 7.78329H98.2453L96.795 10.9578ZM100.566 2.65889L98.7126 6.75196H103.708L101.839 2.65889L101.243 1.25693H101.146L100.566 2.65889Z" fill="white"/>
<path d="M112.681 10.9578H107.992V0.161144H112.681C115.92 0.161144 117.983 2.25602 117.983 5.55949C117.983 8.86296 115.92 10.9578 112.681 10.9578ZM112.681 1.20858H109.152V9.9104H112.681C115.42 9.9104 116.774 8.49232 116.774 5.55949C116.774 2.62666 115.42 1.20858 112.681 1.20858Z" fill="white"/>
<path d="M124.844 10.9578H123.249L118.495 0.161144H119.849L124.022 9.7976H124.103L128.26 0.161144H129.598L124.844 10.9578Z" fill="white"/>
<path d="M135.554 11.119C132.347 11.119 130.107 8.92741 130.107 5.55949C130.107 2.19157 132.347 0 135.554 0C138.793 0 141.033 2.19157 141.033 5.55949C141.033 8.92741 138.793 11.119 135.554 11.119ZM135.554 10.0071C138.294 10.0071 139.824 8.49232 139.824 5.55949C139.824 2.62666 138.294 1.1119 135.554 1.1119C132.831 1.1119 131.316 2.62666 131.316 5.55949C131.316 8.49232 132.831 10.0071 135.554 10.0071Z" fill="white"/>
<path d="M147.399 11.119C144.321 11.119 142.162 8.92741 142.162 5.55949C142.162 2.19157 144.402 0 147.625 0C150.428 0 152.523 1.53087 152.523 3.93193V4.07696H151.283V3.93193C151.283 2.14322 149.993 1.1119 147.608 1.1119C144.885 1.1119 143.37 2.62666 143.37 5.55949C143.37 8.49232 144.869 10.0071 147.56 10.0071C150.122 10.0071 151.379 9.04022 151.379 6.94533V6.54247H147.093V5.64006H152.539V10.9578H151.508V8.60512H151.428C150.88 10.3455 149.317 11.119 147.399 11.119Z" fill="white"/>
<path d="M154.628 10.9578H153.371L158.253 0.161144H159.849L164.748 10.9578H163.458L162.008 7.78329H156.078L154.628 10.9578ZM158.398 2.65889L156.545 6.75196H161.541L159.672 2.65889L159.075 1.25693H158.979L158.398 2.65889Z" fill="white"/>
<path d="M170.514 10.9578H165.824V0.161144H170.514C173.753 0.161144 175.815 2.25602 175.815 5.55949C175.815 8.86296 173.753 10.9578 170.514 10.9578ZM170.514 1.20858H166.985V9.9104H170.514C173.253 9.9104 174.607 8.49232 174.607 5.55949C174.607 2.62666 173.253 1.20858 170.514 1.20858Z" fill="white"/>
<path d="M182.387 11.119C179.18 11.119 176.94 8.92741 176.94 5.55949C176.94 2.19157 179.18 0 182.387 0C185.626 0 187.866 2.19157 187.866 5.55949C187.866 8.92741 185.626 11.119 182.387 11.119ZM182.387 10.0071C185.126 10.0071 186.657 8.49232 186.657 5.55949C186.657 2.62666 185.126 1.1119 182.387 1.1119C179.663 1.1119 178.149 2.62666 178.149 5.55949C178.149 8.49232 179.663 10.0071 182.387 10.0071Z" fill="white"/>
<path d="M193.587 11.119C190.412 11.119 188.93 9.60422 188.93 7.54157V7.44488H190.09V7.65437C190.09 9.20136 191.057 10.0393 193.587 10.0393C195.746 10.0393 196.729 9.44308 196.729 8.21838C196.729 7.00979 196.004 6.5747 194.425 6.25241L192.137 5.81732C190.38 5.47892 188.978 4.73765 188.978 2.94895C188.978 1.48253 190.235 0 193.329 0C196.375 0 197.728 1.61145 197.728 3.57741V3.6741H196.568V3.48072C196.568 1.91762 195.601 1.07967 193.249 1.07967C191.105 1.07967 190.139 1.69202 190.139 2.86837C190.139 4.09307 190.848 4.46371 192.443 4.80211L194.715 5.25332C196.649 5.62395 197.89 6.44579 197.89 8.12169C197.89 9.66868 196.584 11.119 193.587 11.119Z" fill="white"/>
<g clip-path="url(#clip0_245_62)">
<path d="M87.5275 0H79.5166V8H87.5275V0Z" fill="#374FFF"/>
<path d="M103.549 24H95.5381V32H103.549V24Z" fill="#374FFF"/>
<path d="M87.5275 16H79.5166V32H87.5275V16Z" fill="#374FFF"/>
<path d="M47.7706 8V16H63.7899V24H47.7706V32H39.7598V8L47.7706 0H71.8007V8H47.7706Z" fill="#374FFF"/>
<path d="M79.5166 16L87.5275 8V16H79.5166Z" fill="#374FFF"/>
<path d="M8.01085 24H0V32H8.01085V24Z" fill="#374FFF"/>
<path d="M32.0566 8.00411V16.0028H24.0424V8.00411H0V0.00543213H12.709C19.9646 0.00543213 26.9252 2.88262 32.0566 8.00411Z" fill="#374FFF"/>
<path d="M32.0566 24.0013V32H24.0424V24.0013H0V16.0026H24.0424L32.0566 24.0013Z" fill="#374FFF"/>
<path d="M8.01415 24.0013H0V32H8.01415V24.0013Z" fill="#374FFF"/>
</g>
<defs>
<clipPath id="clip0_245_62">
<rect width="103.549" height="32" fill="white"/>
</clipPath>
</defs>
</svg>
