<svg width="156" height="48" viewBox="0 0 156 48" fill="none" xmlns="http://www.w3.org/2000/svg">
<g clip-path="url(#clip0_245_207)">
<path d="M131.291 0H119.274V12H131.291V0Z" fill="#374FFF"/>
<path d="M155.324 36H143.308V48H155.324V36Z" fill="#374FFF"/>
<path d="M131.291 24H119.274V48H131.291V24Z" fill="#374FFF"/>
<path d="M71.6559 12V24H95.6848V36H71.6559V48H59.6396V12L71.6559 0H107.701V12H71.6559Z" fill="#374FFF"/>
<path d="M119.274 24L131.291 12V24H119.274Z" fill="#374FFF"/>
<path d="M12.0163 36H0V48H12.0163V36Z" fill="#374FFF"/>
<path d="M48.0849 12.0058V24.0039H36.0637V12.0058H0V0.0078125H19.0635C29.947 0.0078125 40.3878 4.32359 48.0849 12.0058Z" fill="#374FFF"/>
<path d="M48.0849 36.0019V47.9999H36.0637V36.0019H0V24.0039H36.0637L48.0849 36.0019Z" fill="#374FFF"/>
<path d="M12.0212 36.002H0V48H12.0212V36.002Z" fill="#374FFF"/>
</g>
<defs>
<clipPath id="clip0_245_207">
<rect width="155.323" height="48" fill="white"/>
</clipPath>
</defs>
</svg>
